<svg height="2398" width="720" xmlns="http://www.w3.org/2000/svg">
<rect height="2398" fill="#555" width="720"></rect>
<text fill="#7f7" font-family="Courier New" font-size="12" xml:space="preserve">
<tspan x="10" y="26">32 megabytes installed</tspan>
<tspan x="10" y="42"></tspan>
<tspan x="10" y="58">node_modules</tspan>
<tspan x="10" y="74">└─┬ excel-as-json@2.0.0 </tspan>
<tspan x="10" y="90">  └─┬ excel@0.1.7 </tspan>
<tspan x="10" y="106">    ├─┬ libxmljs@0.18.4 </tspan>
<tspan x="10" y="122">    │ ├── bindings@1.2.1 </tspan>
<tspan x="10" y="138">    │ ├── nan@2.5.1 </tspan>
<tspan x="10" y="154">    │ └─┬ node-pre-gyp@0.6.34 </tspan>
<tspan x="10" y="170">    │   ├─┬ mkdirp@0.5.1 </tspan>
<tspan x="10" y="186">    │   │ └── minimist@0.0.8 </tspan>
<tspan x="10" y="202">    │   ├─┬ nopt@4.0.1 </tspan>
<tspan x="10" y="218">    │   │ ├── abbrev@1.1.0 </tspan>
<tspan x="10" y="234">    │   │ └─┬ osenv@0.1.4 </tspan>
<tspan x="10" y="250">    │   │   ├── os-homedir@1.0.2 </tspan>
<tspan x="10" y="266">    │   │   └── os-tmpdir@1.0.2 </tspan>
<tspan x="10" y="282">    │   ├─┬ npmlog@4.0.2 </tspan>
<tspan x="10" y="298">    │   │ ├─┬ are-we-there-yet@1.1.2 </tspan>
<tspan x="10" y="314">    │   │ │ └── delegates@1.0.0 </tspan>
<tspan x="10" y="330">    │   │ ├── console-control-strings@1.1.0 </tspan>
<tspan x="10" y="346">    │   │ ├─┬ gauge@2.7.3 </tspan>
<tspan x="10" y="362">    │   │ │ ├── aproba@1.1.1 </tspan>
<tspan x="10" y="378">    │   │ │ ├── has-unicode@2.0.1 </tspan>
<tspan x="10" y="394">    │   │ │ ├── object-assign@4.1.1 </tspan>
<tspan x="10" y="410">    │   │ │ ├── signal-exit@3.0.2 </tspan>
<tspan x="10" y="426">    │   │ │ ├─┬ string-width@1.0.2 </tspan>
<tspan x="10" y="442">    │   │ │ │ ├── code-point-at@1.1.0 </tspan>
<tspan x="10" y="458">    │   │ │ │ └─┬ is-fullwidth-code-point@1.0.0 </tspan>
<tspan x="10" y="474">    │   │ │ │   └── number-is-nan@1.0.1 </tspan>
<tspan x="10" y="490">    │   │ │ ├─┬ strip-ansi@3.0.1 </tspan>
<tspan x="10" y="506">    │   │ │ │ └── ansi-regex@2.1.1 </tspan>
<tspan x="10" y="522">    │   │ │ └── wide-align@1.1.0 </tspan>
<tspan x="10" y="538">    │   │ └── set-blocking@2.0.0 </tspan>
<tspan x="10" y="554">    │   ├─┬ rc@1.2.1 </tspan>
<tspan x="10" y="570">    │   │ ├── deep-extend@0.4.1 </tspan>
<tspan x="10" y="586">    │   │ ├── ini@1.3.4 </tspan>
<tspan x="10" y="602">    │   │ ├── minimist@1.2.0 </tspan>
<tspan x="10" y="618">    │   │ └── strip-json-comments@2.0.1 </tspan>
<tspan x="10" y="634">    │   ├─┬ request@2.81.0 </tspan>
<tspan x="10" y="650">    │   │ ├── aws-sign2@0.6.0 </tspan>
<tspan x="10" y="666">    │   │ ├── aws4@1.6.0 </tspan>
<tspan x="10" y="682">    │   │ ├── caseless@0.12.0 </tspan>
<tspan x="10" y="698">    │   │ ├─┬ combined-stream@1.0.5 </tspan>
<tspan x="10" y="714">    │   │ │ └── delayed-stream@1.0.0 </tspan>
<tspan x="10" y="730">    │   │ ├── extend@3.0.0 </tspan>
<tspan x="10" y="746">    │   │ ├── forever-agent@0.6.1 </tspan>
<tspan x="10" y="762">    │   │ ├─┬ form-data@2.1.4 </tspan>
<tspan x="10" y="778">    │   │ │ └── asynckit@0.4.0 </tspan>
<tspan x="10" y="794">    │   │ ├─┬ har-validator@4.2.1 </tspan>
<tspan x="10" y="810">    │   │ │ ├─┬ ajv@4.11.7 </tspan>
<tspan x="10" y="826">    │   │ │ │ ├── co@4.6.0 </tspan>
<tspan x="10" y="842">    │   │ │ │ └─┬ json-stable-stringify@1.0.1 </tspan>
<tspan x="10" y="858">    │   │ │ │   └── jsonify@0.0.0 </tspan>
<tspan x="10" y="874">    │   │ │ └── har-schema@1.0.5 </tspan>
<tspan x="10" y="890">    │   │ ├─┬ hawk@3.1.3 </tspan>
<tspan x="10" y="906">    │   │ │ ├── boom@2.10.1 </tspan>
<tspan x="10" y="922">    │   │ │ ├── cryptiles@2.0.5 </tspan>
<tspan x="10" y="938">    │   │ │ ├── hoek@2.16.3 </tspan>
<tspan x="10" y="954">    │   │ │ └── sntp@1.0.9 </tspan>
<tspan x="10" y="970">    │   │ ├─┬ http-signature@1.1.1 </tspan>
<tspan x="10" y="986">    │   │ │ ├── assert-plus@0.2.0 </tspan>
<tspan x="10" y="1002">    │   │ │ ├─┬ jsprim@1.4.0 </tspan>
<tspan x="10" y="1018">    │   │ │ │ ├── assert-plus@1.0.0 </tspan>
<tspan x="10" y="1034">    │   │ │ │ ├── extsprintf@1.0.2 </tspan>
<tspan x="10" y="1050">    │   │ │ │ ├── json-schema@0.2.3 </tspan>
<tspan x="10" y="1066">    │   │ │ │ └── verror@1.3.6 </tspan>
<tspan x="10" y="1082">    │   │ │ └─┬ sshpk@1.13.0 </tspan>
<tspan x="10" y="1098">    │   │ │   ├── asn1@0.2.3 </tspan>
<tspan x="10" y="1114">    │   │ │   ├── assert-plus@1.0.0 </tspan>
<tspan x="10" y="1130">    │   │ │   ├── bcrypt-pbkdf@1.0.1 </tspan>
<tspan x="10" y="1146">    │   │ │   ├─┬ dashdash@1.14.1 </tspan>
<tspan x="10" y="1162">    │   │ │   │ └── assert-plus@1.0.0 </tspan>
<tspan x="10" y="1178">    │   │ │   ├── ecc-jsbn@0.1.1 </tspan>
<tspan x="10" y="1194">    │   │ │   ├─┬ getpass@0.1.6 </tspan>
<tspan x="10" y="1210">    │   │ │   │ └── assert-plus@1.0.0 </tspan>
<tspan x="10" y="1226">    │   │ │   ├── jodid25519@1.0.2 </tspan>
<tspan x="10" y="1242">    │   │ │   ├── jsbn@0.1.1 </tspan>
<tspan x="10" y="1258">    │   │ │   └── tweetnacl@0.14.5 </tspan>
<tspan x="10" y="1274">    │   │ ├── is-typedarray@1.0.0 </tspan>
<tspan x="10" y="1290">    │   │ ├── isstream@0.1.2 </tspan>
<tspan x="10" y="1306">    │   │ ├── json-stringify-safe@5.0.1 </tspan>
<tspan x="10" y="1322">    │   │ ├─┬ mime-types@2.1.15 </tspan>
<tspan x="10" y="1338">    │   │ │ └── mime-db@1.27.0 </tspan>
<tspan x="10" y="1354">    │   │ ├── oauth-sign@0.8.2 </tspan>
<tspan x="10" y="1370">    │   │ ├── performance-now@0.2.0 </tspan>
<tspan x="10" y="1386">    │   │ ├── qs@6.4.0 </tspan>
<tspan x="10" y="1402">    │   │ ├── safe-buffer@5.0.1 </tspan>
<tspan x="10" y="1418">    │   │ ├── stringstream@0.0.5 </tspan>
<tspan x="10" y="1434">    │   │ ├─┬ tough-cookie@2.3.2 </tspan>
<tspan x="10" y="1450">    │   │ │ └── punycode@1.4.1 </tspan>
<tspan x="10" y="1466">    │   │ ├── tunnel-agent@0.6.0 </tspan>
<tspan x="10" y="1482">    │   │ └── uuid@3.0.1 </tspan>
<tspan x="10" y="1498">    │   ├─┬ rimraf@2.6.1 </tspan>
<tspan x="10" y="1514">    │   │ └─┬ glob@7.1.1 </tspan>
<tspan x="10" y="1530">    │   │   ├── fs.realpath@1.0.0 </tspan>
<tspan x="10" y="1546">    │   │   ├── inflight@1.0.6 </tspan>
<tspan x="10" y="1562">    │   │   ├─┬ minimatch@3.0.3 </tspan>
<tspan x="10" y="1578">    │   │   │ └─┬ brace-expansion@1.1.7 </tspan>
<tspan x="10" y="1594">    │   │   │   ├── balanced-match@0.4.2 </tspan>
<tspan x="10" y="1610">    │   │   │   └── concat-map@0.0.1 </tspan>
<tspan x="10" y="1626">    │   │   └── path-is-absolute@1.0.1 </tspan>
<tspan x="10" y="1642">    │   ├── semver@5.3.0 </tspan>
<tspan x="10" y="1658">    │   ├─┬ tar@2.2.1 </tspan>
<tspan x="10" y="1674">    │   │ ├── block-stream@0.0.9 </tspan>
<tspan x="10" y="1690">    │   │ └─┬ fstream@1.0.11 </tspan>
<tspan x="10" y="1706">    │   │   └── graceful-fs@4.1.11 </tspan>
<tspan x="10" y="1722">    │   └─┬ tar-pack@3.4.0 </tspan>
<tspan x="10" y="1738">    │     ├─┬ debug@2.6.3 </tspan>
<tspan x="10" y="1754">    │     │ └── ms@0.7.2 </tspan>
<tspan x="10" y="1770">    │     ├── fstream-ignore@1.0.5 </tspan>
<tspan x="10" y="1786">    │     ├─┬ once@1.4.0 </tspan>
<tspan x="10" y="1802">    │     │ └── wrappy@1.0.2 </tspan>
<tspan x="10" y="1818">    │     ├─┬ readable-stream@2.2.9 </tspan>
<tspan x="10" y="1834">    │     │ ├── buffer-shims@1.0.0 </tspan>
<tspan x="10" y="1850">    │     │ ├── isarray@1.0.0 </tspan>
<tspan x="10" y="1866">    │     │ ├── process-nextick-args@1.0.7 </tspan>
<tspan x="10" y="1882">    │     │ ├── string_decoder@1.0.0 </tspan>
<tspan x="10" y="1898">    │     │ └── util-deprecate@1.0.2 </tspan>
<tspan x="10" y="1914">    │     └── uid-number@0.0.6 </tspan>
<tspan x="10" y="1930">    ├── node-promise@0.5.12 </tspan>
<tspan x="10" y="1946">    ├── underscore@1.3.3 </tspan>
<tspan x="10" y="1962">    └─┬ unzip2@0.2.5 </tspan>
<tspan x="10" y="1978">      ├─┬ binary@0.3.0 </tspan>
<tspan x="10" y="1994">      │ ├── buffers@0.1.1 </tspan>
<tspan x="10" y="2010">      │ └─┬ chainsaw@0.1.0 </tspan>
<tspan x="10" y="2026">      │   └── traverse@0.3.9 </tspan>
<tspan x="10" y="2042">      ├─┬ fstream@0.1.31 </tspan>
<tspan x="10" y="2058">      │ ├─┬ graceful-fs@3.0.11 </tspan>
<tspan x="10" y="2074">      │ │ └── natives@1.1.0 </tspan>
<tspan x="10" y="2090">      │ └── inherits@2.0.3 </tspan>
<tspan x="10" y="2106">      ├─┬ match-stream@0.0.2 </tspan>
<tspan x="10" y="2122">      │ └─┬ readable-stream@1.0.34 </tspan>
<tspan x="10" y="2138">      │   ├── isarray@0.0.1 </tspan>
<tspan x="10" y="2154">      │   └── string_decoder@0.10.31 </tspan>
<tspan x="10" y="2170">      ├─┬ pullstream@0.4.1 </tspan>
<tspan x="10" y="2186">      │ ├── over@0.0.5 </tspan>
<tspan x="10" y="2202">      │ ├─┬ readable-stream@1.0.34 </tspan>
<tspan x="10" y="2218">      │ │ ├── isarray@0.0.1 </tspan>
<tspan x="10" y="2234">      │ │ └── string_decoder@0.10.31 </tspan>
<tspan x="10" y="2250">      │ └─┬ slice-stream@1.0.0 </tspan>
<tspan x="10" y="2266">      │   └─┬ readable-stream@1.0.34 </tspan>
<tspan x="10" y="2282">      │     ├── isarray@0.0.1 </tspan>
<tspan x="10" y="2298">      │     └── string_decoder@0.10.31 </tspan>
<tspan x="10" y="2314">      ├─┬ readable-stream@1.0.34 </tspan>
<tspan x="10" y="2330">      │ ├── core-util-is@1.0.2 </tspan>
<tspan x="10" y="2346">      │ ├── isarray@0.0.1 </tspan>
<tspan x="10" y="2362">      │ └── string_decoder@0.10.31 </tspan>
<tspan x="10" y="2378">      └── setimmediate@1.0.5</tspan>
</text>
</svg>
